<svg id="visual" viewBox="0 0 960 540" width="960" height="540" xmlns="http://www.w3.org/2000/svg" xmlns:xlink="http://www.w3.org/1999/xlink" version="1.1"><rect x="0" y="0" width="960" height="540" fill="#001220"></rect><defs><linearGradient id="grad1_0" x1="43.8%" y1="100%" x2="100%" y2="0%"><stop offset="14.444444444444446%" stop-color="#001220" stop-opacity="1"></stop><stop offset="85.55555555555554%" stop-color="#001220" stop-opacity="1"></stop></linearGradient></defs><defs><linearGradient id="grad2_0" x1="0%" y1="100%" x2="56.3%" y2="0%"><stop offset="14.444444444444446%" stop-color="#001220" stop-opacity="1"></stop><stop offset="85.55555555555554%" stop-color="#001220" stop-opacity="1"></stop></linearGradient></defs><g transform="translate(960, 540)"><path d="M-405 0C-402.7 -43 -400.5 -85.9 -383.3 -124.5C-366.1 -163.1 -334 -197.4 -298.5 -216.9C-263.1 -236.4 -224.2 -241.3 -197.5 -271.8C-170.7 -302.4 -156.1 -358.7 -125.2 -385.2C-94.2 -411.7 -47.1 -408.3 0 -405L0 0Z" fill="#ffca0d"></path></g><g transform="translate(0, 0)"><path d="M405 0C409.6 47.1 414.3 94.2 385.2 125.2C356.1 156.1 293.2 170.9 250 181.6C206.7 192.4 183.1 199.2 165.8 228.1C148.4 257.1 137.5 308.3 110.9 341.4C84.4 374.6 42.2 389.8 0 405L0 0Z" fill="#ffca0d"></path></g></svg>