<svg id="visual" viewBox="0 0 900 600" width="900" height="600" xmlns="http://www.w3.org/2000/svg" xmlns:xlink="http://www.w3.org/1999/xlink" version="1.1"><path d="M260 0L267 14.3C274 28.7 288 57.3 271.5 85.8C255 114.3 208 142.7 181.8 171.2C155.7 199.7 150.3 228.3 163.8 257C177.3 285.7 209.7 314.3 217.3 343C225 371.7 208 400.3 196.8 428.8C185.7 457.3 180.3 485.7 201.7 514.2C223 542.7 271 571.3 295 585.7L319 600L0 600L0 585.7C0 571.3 0 542.7 0 514.2C0 485.7 0 457.3 0 428.8C0 400.3 0 371.7 0 343C0 314.3 0 285.7 0 257C0 228.3 0 199.7 0 171.2C0 142.7 0 114.3 0 85.8C0 57.3 0 28.7 0 14.3L0 0Z" fill="#ffca0d" stroke-linecap="round" stroke-linejoin="miter"></path></svg>