<svg id="visual" viewBox="0 0 960 540" width="960" height="540" xmlns="http://www.w3.org/2000/svg" xmlns:xlink="http://www.w3.org/1999/xlink" version="1.1"><path d="M0 384L12.3 400.8C24.7 417.7 49.3 451.3 74 471.2C98.7 491 123.3 497 148 487.2C172.7 477.3 197.3 451.7 221.8 449.2C246.3 446.7 270.7 467.3 295.2 460.2C319.7 453 344.3 418 369 409C393.7 400 418.3 417 443 417.8C467.7 418.7 492.3 403.3 517 405.3C541.7 407.3 566.3 426.7 591 421.7C615.7 416.7 640.3 387.3 664.8 374.7C689.3 362 713.7 366 738.2 366.5C762.7 367 787.3 364 812 386.2C836.7 408.3 861.3 455.7 886 467.5C910.7 479.3 935.3 455.7 947.7 443.8L960 432L960 541L947.7 541C935.3 541 910.7 541 886 541C861.3 541 836.7 541 812 541C787.3 541 762.7 541 738.2 541C713.7 541 689.3 541 664.8 541C640.3 541 615.7 541 591 541C566.3 541 541.7 541 517 541C492.3 541 467.7 541 443 541C418.3 541 393.7 541 369 541C344.3 541 319.7 541 295.2 541C270.7 541 246.3 541 221.8 541C197.3 541 172.7 541 148 541C123.3 541 98.7 541 74 541C49.3 541 24.7 541 12.3 541L0 541Z" fill="#ffca0d" stroke-linecap="round" stroke-linejoin="miter"></path></svg>